<svg xmlns="http://www.w3.org/2000/svg" width="42" height="42" viewBox="0 0 42 42">
    <g fill="none" fill-rule="evenodd">
        <path fill="#E4ECF6" d="M0 0h42v42H0z"/>
        <path fill="#89B1D0" d="M10 30.565c.997-.519 2.39-1.17 4.18-1.952 2.685-1.174 3.11-1.99 3.094-3.135-.01-.764-.005-1.538.016-2.325-.8-.462-1.294-1.518-1.481-3.17-.013-.11-1.748-.634-1.217-2.66.19-.727.45-.196.533-.309.312-.424-1.605-4.784 0-7.155 2.15-3.175 7.031-3.713 8.48-1.578.088.13 1.382.305 1.901.946 2.142 2.641.98 5.446.59 7.369-.047.233.648-.499.433 1.26-.144 1.172-.55 1.882-1.215 2.128-.08 1.48-.549 2.536-1.405 3.17-.088.064-.088 1.143 0 3.236.396.744 1.467 1.485 3.212 2.223 1.745.738 3.089 1.389 4.03 1.952-2.11 2.78-5.397 4.3-9.862 4.56-4.465.261-8.228-1.26-11.289-4.56z"/>
    </g>
</svg>
